<svg width="39" height="39" viewBox="0 0 39 39" fill="none" xmlns="http://www.w3.org/2000/svg">
<path d="M11.375 35.75C10.4812 35.75 9.71642 35.432 9.0805 34.7961C8.4435 34.1591 8.125 33.3937 8.125 32.5C8.125 31.6063 8.4435 30.8409 9.0805 30.2039C9.71642 29.568 10.4812 29.25 11.375 29.25C12.2688 29.25 13.0336 29.568 13.6695 30.2039C14.3065 30.8409 14.625 31.6063 14.625 32.5C14.625 33.3937 14.3065 34.1591 13.6695 34.7961C13.0336 35.432 12.2688 35.75 11.375 35.75ZM27.625 35.75C26.7313 35.75 25.9664 35.432 25.3305 34.7961C24.6935 34.1591 24.375 33.3937 24.375 32.5C24.375 31.6063 24.6935 30.8409 25.3305 30.2039C25.9664 29.568 26.7313 29.25 27.625 29.25C28.5187 29.25 29.2841 29.568 29.9211 30.2039C30.557 30.8409 30.875 31.6063 30.875 32.5C30.875 33.3937 30.557 34.1591 29.9211 34.7961C29.2841 35.432 28.5187 35.75 27.625 35.75ZM11.375 27.625C10.1562 27.625 9.23542 27.0898 8.6125 26.0195C7.98958 24.9502 7.9625 23.8875 8.53125 22.8313L10.725 18.85L4.875 6.5H3.20938C2.74896 6.5 2.36979 6.344 2.07187 6.032C1.77396 5.72108 1.625 5.33542 1.625 4.875C1.625 4.41458 1.781 4.02837 2.093 3.71637C2.40392 3.40546 2.78958 3.25 3.25 3.25H5.89062C6.18854 3.25 6.47292 3.33125 6.74375 3.49375C7.01458 3.65625 7.21771 3.88646 7.35313 4.18438L8.45 6.5H32.4188C33.15 6.5 33.651 6.77083 33.9219 7.3125C34.1927 7.85417 34.1792 8.42292 33.8813 9.01875L28.1125 19.4187C27.8146 19.9604 27.4219 20.3802 26.9344 20.6781C26.4469 20.976 25.8917 21.125 25.2688 21.125H13.1625L11.375 24.375H29.2906C29.751 24.375 30.1302 24.5305 30.4281 24.8414C30.726 25.1534 30.875 25.5396 30.875 26C30.875 26.4604 30.719 26.8461 30.407 27.157C30.0961 27.469 29.7104 27.625 29.25 27.625H11.375Z" fill="#DB812D"/>
</svg>
