<svg width="75" height="77" viewBox="0 0 75 77" fill="none" xmlns="http://www.w3.org/2000/svg">
<path d="M28.9152 0.319906C27.4735 0.329956 26.0504 0.534863 24.669 0.947755C23.2986 1.35789 22.036 1.95235 20.8903 2.7094C22.1421 5.89031 25.3377 9.92813 29.0395 13.3751C32.9045 16.9742 37.3362 20.0321 40.1983 21.4111L40.2318 21.4274L40.2648 21.4441C42.8948 22.7952 44.7568 24.9218 45.8316 27.2677C46.5238 28.7782 46.927 30.3604 47.162 31.9688C49.2694 30.3251 51.491 29.0087 53.7495 28.0534C53.5777 25.0852 52.9247 21.9727 51.7355 18.8561C49.2412 12.3199 44.8847 7.05782 39.9509 3.8487C36.4048 1.54221 32.5993 0.294292 28.915 0.319906H28.9152ZM16.5287 7.17794C15.6998 8.46412 15.0201 9.89814 14.5036 11.4555C12.7788 16.655 12.9187 23.1773 15.4131 29.7139C16.9226 33.6699 19.1152 37.158 21.7045 40.0079C24.2555 40.7711 26.7786 41.9502 29.1486 43.5503C30.9798 44.7867 32.6116 46.2019 34.0257 47.7411C34.4872 47.8533 34.9489 47.9489 35.4101 48.0242C36.2887 45.7323 37.4291 43.452 38.8345 41.2399C39.6848 39.9003 40.6166 38.6142 41.6244 37.3886C41.636 36.547 41.6292 35.7314 41.5892 34.9528C41.4806 32.847 41.1434 31.046 40.5258 29.6982C39.9084 28.3504 39.1041 27.4089 37.5981 26.6353L37.6645 26.668C33.9558 24.8808 29.3245 21.6148 25.0621 17.6458C21.6741 14.4912 18.5311 10.9575 16.5287 7.17778V7.17794ZM61.8791 29.1802C59.6895 29.1981 57.3731 29.7066 55.0297 30.6794C50.0302 32.7548 45.0103 36.9612 41.2974 42.8047C39.398 45.7943 38.033 48.9114 37.1844 51.9676C40.5157 57.5568 41.3339 63.977 38.934 69.3688C39.3219 69.923 39.7549 70.4442 40.2286 70.9271C43.7373 67.8999 47.781 65.3922 50.6548 62.8171C52.2257 61.41 53.4151 60.0167 54.076 58.6898C54.7369 57.3626 54.9643 56.1452 54.6207 54.4875L54.6006 54.391L54.5873 54.2937C53.2818 44.8437 55.5721 39.2902 58.9098 35.8927C61.5936 33.1612 64.2652 31.7224 66.1082 29.823C64.7767 29.3804 63.3569 29.1681 61.8791 29.1802ZM71.0782 33.0632C68.3823 36.414 65.0586 37.9617 63.0727 39.983C60.7909 42.3057 59.2157 45.1016 60.3631 53.455C60.9155 56.2951 60.43 59.0228 59.3 61.2917C58.1495 63.6012 56.429 65.4793 54.5493 67.1636C51.6941 69.722 48.4005 71.9128 45.6453 74.05C48.77 74.8617 52.3275 74.4689 55.9498 72.965C60.9493 70.89 65.9695 66.6833 69.6821 60.8397C73.3952 54.996 75.0706 48.6642 74.8255 43.2568C74.6381 39.1214 73.3608 35.578 71.0783 33.0634L71.0782 33.0632ZM60.3631 53.455C60.3533 53.4039 60.3456 53.3532 60.3349 53.3021L60.3686 53.4955C60.367 53.482 60.3653 53.4685 60.3632 53.455H60.3631ZM14.9363 41.8765C11.9562 41.8496 9.149 42.503 6.78625 43.7905C6.80246 43.791 6.81656 43.7921 6.83278 43.7926C8.23178 43.8421 9.98807 43.677 12.0102 43.9531C14.0322 44.2293 16.401 45.1475 18.1953 47.1779C19.9899 49.2082 21.2203 52.0866 22.0774 56.2204L22.0976 56.3167L22.1109 56.4143C22.5086 59.2985 24.3458 60.9671 27.5309 62.5294C30.2485 63.8624 33.7376 64.8143 37.0495 65.7834C38.5328 59.1369 35.0134 51.0305 27.5158 45.9688C23.4731 43.2395 19.0417 41.9136 14.9366 41.8765H14.9363ZM1.7928 48.5954C-2.30371 55.6521 0.9816 66.0068 9.91545 72.0384C18.7058 77.9732 29.3339 77.2706 34.4491 71.1144C31.4604 70.2626 28.0723 69.2955 24.9608 67.7694C20.9486 65.8014 17.1245 62.4944 16.3528 57.3584C15.618 53.8406 14.6361 51.9634 13.8223 51.0426C13.0053 50.1175 12.3682 49.8925 11.2204 49.736C10.0727 49.5791 8.49537 49.6911 6.62738 49.6253C5.17164 49.5741 3.46366 49.3651 1.7928 48.5956V48.5954ZM16.353 57.3583C16.3565 57.3745 16.3601 57.3894 16.3635 57.4058L16.33 57.2119C16.3368 57.2612 16.3457 57.3091 16.3531 57.3584L16.353 57.3583Z" fill="#DB812D"/>
</svg>
